HIERARCHY
ROOT Hips
{
	OFFSET -0.001795 -0.223333 0.028219
	CHANNELS 6 Xposition Yposition Zposition Zrotation Yrotation Xrotation 
	JOINT LeftUpLeg
	{
		OFFSET 0.069520 -0.091406 -0.006815
		CHANNELS 3 Zrotation Yrotation Xrotation
		JOINT LeftLeg
		{
			OFFSET 0.034277 -0.375199 -0.004496
			CHANNELS 3 Zrotation Yrotation Xrotation
			JOINT LeftFoot
			{
				OFFSET -0.013596 -0.397961 -0.043693
				CHANNELS 3 Zrotation Yrotation Xrotation
				JOINT LeftToe
				{
					OFFSET 0.026358 -0.055791 0.119288
					CHANNELS 3 Zrotation Yrotation Xrotation
					End Site
					{
						OFFSET 0.000000 0.000000 0.000000
					}
				}
			}
		}
	}
	JOINT RightUpLeg
	{
		OFFSET -0.067670 -0.090522 -0.004320
		CHANNELS 3 Zrotation Yrotation Xrotation
		JOINT RightLeg
		{
			OFFSET -0.038290 -0.382569 -0.008850
			CHANNELS 3 Zrotation Yrotation Xrotation
			JOINT RightFoot
			{
				OFFSET 0.015774 -0.398415 -0.042312
				CHANNELS 3 Zrotation Yrotation Xrotation
				JOINT RightToe
				{
					OFFSET -0.025372 -0.048144 0.123348
					CHANNELS 3 Zrotation Yrotation Xrotation
					End Site
					{
						OFFSET 0.000000 0.000000 0.000000
					}
				}
			}
		}
	}
	JOINT Spine
	{
		OFFSET -0.002533 0.108963 -0.026696
		CHANNELS 3 Zrotation Yrotation Xrotation
		JOINT Spine1
		{
			OFFSET 0.005487 0.135180 0.001092
			CHANNELS 3 Zrotation Yrotation Xrotation
			JOINT Spine2
			{
				OFFSET 0.001457 0.052922 0.025425
				CHANNELS 3 Zrotation Yrotation Xrotation
				JOINT Neck
				{
					OFFSET -0.002778 0.213870 -0.042857
					CHANNELS 3 Zrotation Yrotation Xrotation
					JOINT Head
					{
						OFFSET 0.005152 0.064970 0.051349
						CHANNELS 3 Zrotation Yrotation Xrotation
						End Site
						{
							OFFSET 0.000000 0.000000 0.000000
						}
					}
				}
				JOINT LeftShoulder
				{
					OFFSET 0.078845 0.121749 -0.034090
					CHANNELS 3 Zrotation Yrotation Xrotation
					JOINT LeftArm
					{
						OFFSET 0.090977 0.030469 -0.008868
						CHANNELS 3 Zrotation Yrotation Xrotation
						JOINT LeftForeArm
						{
							OFFSET 0.259612 -0.012772 -0.027456
							CHANNELS 3 Zrotation Yrotation Xrotation
							JOINT LeftHand
							{
								OFFSET 0.249234 0.008986 -0.001171
								CHANNELS 3 Zrotation Yrotation Xrotation
								End Site
								{
									OFFSET 0.000000 0.000000 0.000000
								}
							}
						}
					}
				}
				JOINT RightShoulder
				{
					OFFSET -0.081759 0.118833 -0.038615
					CHANNELS 3 Zrotation Yrotation Xrotation
					JOINT RightArm
					{
						OFFSET -0.096012 0.032551 -0.009143
						CHANNELS 3 Zrotation Yrotation Xrotation
						JOINT RightForeArm
						{
							OFFSET -0.253742 -0.013329 -0.021401
							CHANNELS 3 Zrotation Yrotation Xrotation
							JOINT RightHand
							{
								OFFSET -0.255298 0.007772 -0.005559
								CHANNELS 3 Zrotation Yrotation Xrotation
								End Site
								{
									OFFSET 0.000000 0.000000 0.000000
								}
							}
						}
					}
				}
			}
		}
	}
}
MOTION
Frames: 15
Frame Time: 0.050000
-0.025969 0.296705 -0.060754 -8.802759 -39.861583 -27.738678 30.586849 29.871522 -52.716669 0.176891 -22.715130 154.331854 10.040859 17.052901 -38.109735 0.000000 0.000000 0.000000 -42.380934 0.494243 -59.048157 98.763260 -69.078743 58.158147 -7.733020 -47.048025 -36.632242 0.000000 0.000000 0.000000 18.926968 1.136942 84.559919 12.754981 -8.535450 9.473378 -15.226300 -4.289950 -7.082724 12.371677 -13.999872 12.692233 0.000000 0.000000 0.000000 -2.374201 -48.377116 16.895586 -9.209278 -21.299866 0.231630 47.690376 -38.376407 -17.156560 0.000000 0.000000 0.000000 19.061424 38.672557 19.824312 12.109643 14.734955 0.107928 -31.561259 47.181059 -11.996308 0.000000 0.000000 0.000000 
-0.027236 0.297981 -0.059825 -8.894231 -40.024594 -28.086374 31.165325 29.461652 -51.143886 0.337864 -23.265136 154.556371 10.166683 16.276661 -38.441126 0.000000 0.000000 0.000000 -42.119500 0.586720 -58.338666 94.948856 -69.371660 62.244869 -7.257037 -44.735440 -36.778965 0.000000 0.000000 0.000000 19.539681 0.719563 84.126682 13.108806 -8.955551 10.367436 -15.224053 -3.806695 -7.428357 13.264636 -14.572014 11.789333 0.000000 0.000000 0.000000 -2.782209 -48.284967 16.926986 -9.470576 -21.896322 0.321176 49.922237 -38.889464 -18.496490 0.000000 0.000000 0.000000 19.606939 37.805140 19.703142 13.067712 14.179095 0.093690 -33.007010 48.017821 -12.866819 0.000000 0.000000 0.000000 
-0.029054 0.297579 -0.059169 -9.067716 -40.315749 -28.331471 31.524155 29.434651 -50.343157 0.557684 -24.982841 154.816976 10.039857 12.350585 -39.735077 0.000000 0.000000 0.000000 -42.008007 0.701910 -57.690738 93.441070 -69.653253 64.065500 -6.769169 -42.924270 -37.225467 0.000000 0.000000 0.000000 19.855250 0.593165 83.801317 13.681537 -9.547876 11.371058 -15.621418 -3.679662 -8.595762 13.598597 -15.006855 12.274834 0.000000 0.000000 0.000000 -3.570717 -47.815465 17.007118 -9.523435 -21.941974 0.388439 52.373190 -39.381122 -19.966121 0.000000 0.000000 0.000000 20.670024 36.977421 19.866820 13.863097 13.960402 0.114861 -35.330106 49.672111 -14.461188 0.000000 0.000000 0.000000 
-0.030895 0.298398 -0.059236 -8.955132 -40.734171 -28.809337 31.819593 29.186443 -49.107228 1.191402 -27.970620 154.728997 10.182470 6.583493 -41.231102 0.000000 0.000000 0.000000 -42.101233 0.825634 -57.172165 88.522218 -69.928665 69.318116 -6.198162 -39.271892 -37.323476 0.000000 0.000000 0.000000 20.216809 0.545106 83.238322 13.916399 -9.927108 12.605730 -15.575985 -3.783101 -9.246912 13.818725 -15.126808 12.346073 0.000000 0.000000 0.000000 -4.529677 -47.751243 17.345456 -9.276423 -21.462973 0.384279 55.285805 -39.735434 -21.465219 0.000000 0.000000 0.000000 20.626358 36.357262 19.520195 14.798781 14.466808 0.239718 -38.782982 50.848454 -16.578413 0.000000 0.000000 0.000000 
-0.032482 0.299803 -0.060559 -8.496733 -41.531426 -29.200614 31.936806 29.061917 -47.886547 2.336268 -32.551292 154.177466 10.692866 -1.585528 -42.624431 0.000000 0.000000 0.000000 -42.026342 1.171377 -57.110849 89.313554 -69.662356 68.492218 -5.901952 -38.410864 -37.699708 0.000000 0.000000 0.000000 21.019307 0.446730 82.661736 14.376362 -10.341981 13.092616 -15.999852 -4.328285 -9.046209 14.177643 -15.189497 11.919851 0.000000 0.000000 0.000000 -4.461947 -47.497537 17.302254 -9.694137 -21.118997 0.423537 58.607248 -39.267589 -22.739566 0.000000 0.000000 0.000000 20.537333 36.101928 19.195076 15.046888 15.867767 0.428396 -43.974146 50.639939 -19.163508 0.000000 0.000000 0.000000 
-0.034019 0.302629 -0.063351 -8.270280 -42.296146 -29.212504 31.580057 28.924584 -47.396066 3.479525 -35.307774 153.112501 11.547185 -7.176779 -44.165875 0.000000 0.000000 0.000000 -41.798585 1.545247 -57.425990 89.401459 -68.945176 68.041634 -5.765269 -36.970522 -37.495250 0.000000 0.000000 0.000000 21.341456 0.645187 82.335618 14.852749 -10.742628 13.772143 -16.294487 -4.409886 -9.566101 14.179416 -14.932783 11.335840 0.000000 0.000000 0.000000 -4.758737 -47.483682 17.364028 -9.543627 -20.369439 0.420309 61.819332 -38.928349 -24.090564 0.000000 0.000000 0.000000 19.880310 36.012885 19.004907 15.578825 17.335214 0.636864 -49.312510 50.693600 -21.926740 0.000000 0.000000 0.000000 
-0.035560 0.305784 -0.067035 -7.842679 -43.301180 -29.307006 31.190666 28.981761 -47.042890 5.501503 -40.461121 151.266715 12.580270 -13.319330 -45.665800 0.000000 0.000000 0.000000 -41.976186 1.909855 -57.798970 91.698415 -68.211744 65.334434 -5.687637 -35.825767 -37.100552 0.000000 0.000000 0.000000 21.939640 0.782790 82.538792 15.150558 -10.835309 13.210926 -16.632861 -4.733898 -9.096258 14.073923 -14.783106 11.130537 0.000000 0.000000 0.000000 -4.669072 -47.751641 17.443326 -9.220053 -19.061988 0.324677 63.830090 -38.893747 -25.001804 0.000000 0.000000 0.000000 19.416961 36.420777 18.991511 15.810128 18.373822 0.772012 -52.383745 50.438359 -23.463006 0.000000 0.000000 0.000000 
-0.037061 0.309656 -0.071002 -7.776094 -43.737938 -29.165870 30.585830 28.509277 -46.783659 6.639239 -41.237448 149.813953 12.765279 -14.446528 -45.649157 0.000000 0.000000 0.000000 -41.675016 2.123300 -57.610696 93.993564 -67.230224 62.552907 -5.580490 -35.423623 -37.051435 0.000000 0.000000 0.000000 22.227586 0.767543 82.278048 15.356011 -11.147110 14.223924 -16.735913 -4.786528 -10.091761 13.708923 -14.535472 11.665197 0.000000 0.000000 0.000000 -6.358635 -48.134614 18.184266 -7.994521 -17.705342 0.217200 64.670232 -39.743741 -25.798985 0.000000 0.000000 0.000000 19.355110 36.572453 19.191864 14.960121 18.299808 0.717006 -53.246060 50.510255 -23.890116 0.000000 0.000000 0.000000 
-0.038202 0.313373 -0.074368 -7.621274 -44.254433 -29.022435 30.383319 28.319352 -46.313761 8.029540 -42.931188 148.266168 13.328951 -16.485157 -46.573001 0.000000 0.000000 0.000000 -41.427002 2.378417 -57.414010 93.895176 -66.294480 62.204670 -5.227811 -33.642613 -37.445312 0.000000 0.000000 0.000000 22.727012 0.701497 81.850410 15.655931 -11.417727 14.577820 -17.570805 -5.060634 -10.268668 13.753292 -14.682436 12.121157 0.000000 0.000000 0.000000 -7.906468 -48.512182 18.953587 -6.547179 -17.023064 0.079594 64.401931 -40.772247 -26.130018 0.000000 0.000000 0.000000 19.665652 37.266825 19.788496 13.862141 17.404930 0.537811 -52.593877 50.541963 -23.483535 0.000000 0.000000 0.000000 
-0.038690 0.317287 -0.076675 -7.407891 -44.581343 -28.984898 30.005533 27.739443 -45.636979 9.612735 -44.509441 146.611226 13.778723 -18.440063 -47.117746 0.000000 0.000000 0.000000 -40.898728 2.618918 -56.924770 93.604194 -65.726605 62.339100 -4.811067 -32.717981 -38.345696 0.000000 0.000000 0.000000 23.313689 0.462140 81.123997 15.754388 -11.692779 15.646723 -18.149236 -5.703629 -11.161591 13.469515 -14.638759 13.432600 0.000000 0.000000 0.000000 -10.294673 -49.044314 20.268371 -5.553360 -16.027615 -0.001566 64.495370 -42.040647 -26.702833 0.000000 0.000000 0.000000 20.108664 37.736682 20.255802 13.031540 16.328820 0.426817 -51.178806 51.427537 -23.156718 0.000000 0.000000 0.000000 
-0.038612 0.321774 -0.077960 -7.420821 -44.970718 -28.620799 29.605783 27.028141 -44.739539 10.710379 -44.806036 145.561353 14.435489 -18.857630 -48.265679 0.000000 0.000000 0.000000 -40.297824 2.886289 -56.104092 91.441241 -65.165998 64.423286 -4.082821 -30.164623 -39.966839 0.000000 0.000000 0.000000 23.952266 0.259672 80.199627 15.667101 -11.735935 16.418025 -18.550337 -6.279608 -11.403000 13.787587 -14.826854 13.767353 0.000000 0.000000 0.000000 -12.327238 -49.335656 21.404995 -4.604637 -16.572509 -0.082593 63.275264 -42.936275 -26.383986 0.000000 0.000000 0.000000 20.394549 38.307107 20.604012 12.122791 14.645441 0.263464 -48.880539 52.166047 -22.263625 0.000000 0.000000 0.000000 
-0.038233 0.325914 -0.078486 -7.227141 -45.575977 -28.365396 29.453003 26.756328 -43.974052 11.880872 -45.614824 144.477485 14.935769 -20.147246 -48.888454 0.000000 0.000000 0.000000 -39.972881 3.182844 -55.612537 88.766653 -64.744374 67.101271 -3.513610 -27.295493 -41.210245 0.000000 0.000000 0.000000 24.149748 0.496404 79.169270 15.979202 -11.895116 16.488496 -19.135274 -6.573554 -11.022819 13.840417 -14.930333 14.210766 0.000000 0.000000 0.000000 -12.188624 -49.286042 21.497075 -5.368749 -17.434038 -0.029491 63.347531 -43.797978 -26.992073 0.000000 0.000000 0.000000 20.945338 38.935054 21.113040 11.308361 13.089960 0.110865 -46.982928 52.238017 -21.246755 0.000000 0.000000 0.000000 
-0.038044 0.329926 -0.078491 -7.590192 -45.845095 -28.177242 28.780356 25.976382 -43.503533 12.293368 -44.914007 144.151743 15.023817 -19.148823 -48.915775 0.000000 0.000000 0.000000 -39.144057 3.405491 -54.698639 85.855464 -64.310577 70.135350 -3.089192 -25.024234 -41.854688 0.000000 0.000000 0.000000 24.716829 0.258746 77.713916 15.871596 -11.958919 17.701155 -18.730299 -7.176641 -11.307497 14.000354 -14.682221 14.030766 0.000000 0.000000 0.000000 -13.466155 -49.624933 22.520790 -5.609390 -18.339194 -0.007227 62.750233 -44.786626 -27.115504 0.000000 0.000000 0.000000 20.803026 39.128704 20.939569 11.129233 11.609242 0.058624 -45.403777 53.000740 -20.766368 0.000000 0.000000 0.000000 
-0.038103 0.333032 -0.078260 -7.724583 -46.251456 -28.029756 28.934044 25.427545 -42.077402 13.223314 -45.388792 143.450384 15.645402 -21.107154 -49.661801 0.000000 0.000000 0.000000 -38.671836 3.618471 -53.950491 82.340129 -63.846153 73.794186 -2.665708 -21.848964 -42.628600 0.000000 0.000000 0.000000 25.098780 0.267697 76.348612 16.001097 -11.919937 17.419247 -18.724007 -7.732660 -10.063305 14.123533 -14.552729 13.849543 0.000000 0.000000 0.000000 -13.419858 -49.464377 22.723586 -6.307963 -19.516114 0.027933 61.684357 -45.192477 -26.757838 0.000000 0.000000 0.000000 20.969328 39.242511 20.611091 10.917753 10.511582 0.005676 -44.307521 53.636135 -20.558335 0.000000 0.000000 0.000000 
-0.038517 0.334532 -0.077899 -8.067119 -46.827257 -28.148948 29.134138 25.165824 -40.942595 13.882054 -45.925420 143.075510 15.610095 -21.073027 -49.211755 0.000000 0.000000 0.000000 -37.619290 3.999173 -53.632566 82.180235 -63.474021 74.085022 -2.485143 -21.895947 -42.678305 0.000000 0.000000 0.000000 25.525494 0.294903 74.891868 16.334408 -12.085865 17.629413 -18.616519 -8.560734 -9.368562 13.922842 -13.861689 13.134038 0.000000 0.000000 0.000000 -12.653454 -49.371293 22.720920 -7.313340 -20.047023 0.100754 60.271567 -44.990378 -25.763741 0.000000 0.000000 0.000000 20.729466 39.467022 20.181642 10.815347 9.715176 -0.000784 -43.600486 54.783704 -20.781247 0.000000 0.000000 0.000000 
